<svg width="23" height="19" viewBox="0 0 23 19" fill="none" xmlns="http://www.w3.org/2000/svg">
<g id="Email">
<path id="Icon" fill-rule="evenodd" clip-rule="evenodd" d="M0.578368 5.31053C0.241547 8.29949 0.256561 11.7467 0.725252 14.7235C0.984589 16.3707 2.39211 17.6334 4.12953 17.7777L5.94531 17.9284C9.73146 18.2428 13.539 18.2428 17.3252 17.9284L19.141 17.7777C20.8784 17.6334 22.2859 16.3707 22.5452 14.7235C23.0139 11.7467 23.029 8.29968 22.6921 5.31071C22.6486 4.96419 22.5996 4.61814 22.5452 4.27267C22.2859 2.62553 20.8784 1.36279 19.141 1.21854L17.3252 1.06779C13.539 0.753446 9.73146 0.753446 5.94531 1.06779L4.12953 1.21854C2.3921 1.36279 0.984589 2.62553 0.725252 4.27267C0.670868 4.61808 0.621907 4.96407 0.578368 5.31053ZM6.10149 2.78379C9.78372 2.47808 13.4868 2.47808 17.169 2.78379L18.9848 2.93455C19.8917 3.00985 20.6264 3.669 20.7618 4.52881C20.7759 4.6181 20.7895 4.70743 20.8028 4.7968L14.1168 8.34447C12.5735 9.16335 10.6969 9.16335 9.15364 8.34447L2.46764 4.79684C2.48093 4.70746 2.49461 4.61811 2.50867 4.52881C2.64405 3.669 3.37877 3.00985 4.28572 2.93455L6.10149 2.78379ZM21.0235 6.65015C21.2567 9.25425 21.1695 11.878 20.7618 14.4674C20.6264 15.3272 19.8917 15.9864 18.9848 16.0617L17.169 16.2124C13.4868 16.5181 9.78372 16.5181 6.10149 16.2124L4.28572 16.0617C3.37878 15.9864 2.64405 15.3272 2.50867 14.4674C2.10098 11.878 2.01374 9.25428 2.24695 6.65019L8.2778 9.85019C10.3658 10.9581 12.9046 10.9581 14.9926 9.85019L21.0235 6.65015Z" fill="#C2C3CB"/>
</g>
</svg>
